<svg xmlns="http://www.w3.org/2000/svg" viewBox="0 0 1200 630">
  <rect width="1200" height="630" fill="#050505"/>
  <g transform="translate(72 64)">
    <rect width="60" height="60" rx="4" fill="#ff4f2b"/>
    <path d="M30 4v52M4 30h52" stroke="#050505" stroke-width="2" opacity=".3"/>
    <path d="m8 48 14-15 10 8 19-29" fill="none" stroke="#fff" stroke-width="5"/>
    <circle cx="8" cy="48" r="4" fill="#fff"/>
    <circle cx="51" cy="12" r="8" fill="#050505"/>
    <path d="m47 12 3 3 5-6" fill="none" stroke="#fff" stroke-width="2.5"/>
    <text x="82" y="43" fill="#f5f5f2" font-family="Helvetica Neue,Arial,sans-serif" font-size="34" letter-spacing="-1.5">Grid<tspan font-weight="700">Permit</tspan></text>
  </g>
  <text x="72" y="260" fill="#f5f5f2" font-family="Helvetica Neue,Arial,sans-serif" font-size="82" font-weight="300" letter-spacing="-4">Solar permitting,</text>
  <text x="72" y="354" fill="#ff4f2b" font-family="Helvetica Neue,Arial,sans-serif" font-size="82" font-weight="300" letter-spacing="-4">without the guessing.</text>
  <text x="76" y="431" fill="#a8a8a5" font-family="Helvetica Neue,Arial,sans-serif" font-size="23">Local permit requirements. Utility approvals.</text>
  <text x="76" y="465" fill="#a8a8a5" font-family="Helvetica Neue,Arial,sans-serif" font-size="23">The official sources behind your next step.</text>
  <g transform="translate(886 116)">
    <path d="M0 320H230M0 240H230M0 160H230M0 80H230M48 32V352M128 32V352M208 32V352" fill="none" stroke="#303030" stroke-width="1"/>
    <path d="M20 320c45 0 42-74 88-74s38-82 84-82 28-70 58-70" fill="none" stroke="#050505" stroke-width="12"/>
    <path d="M20 320c45 0 42-74 88-74s38-82 84-82 28-70 58-70" fill="none" stroke="#ff4f2b" stroke-width="4"/>
    <circle cx="20" cy="320" r="13" fill="#050505" stroke="#ff4f2b" stroke-width="3"/>
    <circle cx="20" cy="320" r="4" fill="#ff4f2b"/>
    <circle cx="250" cy="94" r="17" fill="#ff4f2b"/>
    <path d="m242 94 6 6 11-13" fill="none" stroke="#050505" stroke-width="3"/>
  </g>
  <path d="M72 550H1128" stroke="#303030"/>
  <text x="72" y="586" fill="#a8a8a5" font-family="Menlo,Consolas,monospace" font-size="13" letter-spacing="2">OFFICIAL SOURCES. CLEAR BOUNDARIES.</text>
</svg>
